<svg width="27" height="16" viewBox="0 0 27 16" fill="none" xmlns="http://www.w3.org/2000/svg">
<g clip-path="url(#clip0_276_197)">
<path d="M13.5 15.4999C13.6953 15.5017 13.8887 15.4631 14.068 15.3866C14.2472 15.31 14.4082 15.1973 14.5406 15.0556L26.5802 2.89271C26.7131 2.76513 26.8188 2.61251 26.8908 2.4439C26.9629 2.27528 27 2.0941 26.9998 1.91109C27.0029 1.72498 26.968 1.54016 26.8972 1.36762C26.8265 1.19509 26.7213 1.03835 26.588 0.906729C26.4547 0.77511 26.296 0.671296 26.1212 0.601456C25.9465 0.531615 25.7593 0.497174 25.5708 0.500181C25.1956 0.504338 24.8356 0.646708 24.5613 0.899372L13.5 12.0643L2.43939 0.898718C2.16638 0.643698 1.80508 0.501155 1.42924 0.500181C1.24073 0.497174 1.05354 0.531615 0.878782 0.601456C0.704024 0.671296 0.545272 0.77511 0.411961 0.906729C0.278649 1.03835 0.173499 1.19509 0.10276 1.36762C0.0320216 1.54016 -0.00286184 1.72498 0.000183522 1.91109C0.000183522 2.29458 0.155285 2.63225 0.419754 2.90841L12.4594 15.0549C12.7543 15.3468 13.0957 15.4999 13.5 15.4999Z" fill="black"/>
</g>
<defs>
<clipPath id="clip0_276_197">
<rect width="27" height="15" fill="currentColor" transform="translate(0 0.5)"/>
</clipPath>
</defs>
</svg>
