<svg width="19" height="19" viewBox="0 0 19 19" fill="currentColor" xmlns="http://www.w3.org/2000/svg">
<path d="M9.5 7.64C9.13213 7.64 8.77251 7.74909 8.46664 7.95347C8.16076 8.15785 7.92236 8.44834 7.78158 8.78821C7.6408 9.12808 7.60397 9.50206 7.67574 9.86287C7.74751 10.2237 7.92466 10.5551 8.18478 10.8152C8.44491 11.0753 8.77633 11.2525 9.13713 11.3243C9.49794 11.396 9.87192 11.3592 10.2118 11.2184C10.5517 11.0776 10.8422 10.8392 11.0465 10.5334C11.2509 10.2275 11.36 9.86787 11.36 9.5C11.36 9.25574 11.3119 9.01387 11.2184 8.78821C11.1249 8.56254 10.9879 8.3575 10.8152 8.18478C10.6425 8.01206 10.4375 7.87506 10.2118 7.78158C9.98613 7.68811 9.74426 7.64 9.5 7.64ZM16.9475 5.8025C16.9436 5.22332 16.8369 4.64943 16.6325 4.1075C16.482 3.71094 16.249 3.35082 15.9491 3.05089C15.6492 2.75096 15.2891 2.51804 14.8925 2.3675C14.3506 2.1631 13.7767 2.05645 13.1975 2.0525C12.23 2 11.945 2 9.5 2C7.055 2 6.77 2 5.8025 2.0525C5.22332 2.05645 4.64943 2.1631 4.1075 2.3675C3.71094 2.51804 3.35082 2.75096 3.05089 3.05089C2.75096 3.35082 2.51804 3.71094 2.3675 4.1075C2.1631 4.64943 2.05645 5.22332 2.0525 5.8025C2 6.77 2 7.055 2 9.5C2 11.945 2 12.23 2.0525 13.1975C2.06057 13.7787 2.16708 14.3544 2.3675 14.9C2.51737 15.2947 2.7501 15.6528 3.05 15.95C3.34865 16.2517 3.70954 16.4847 4.1075 16.6325C4.64943 16.8369 5.22332 16.9436 5.8025 16.9475C6.77 17 7.055 17 9.5 17C11.945 17 12.23 17 13.1975 16.9475C13.7767 16.9436 14.3506 16.8369 14.8925 16.6325C15.2905 16.4847 15.6514 16.2517 15.95 15.95C16.2499 15.6528 16.4826 15.2947 16.6325 14.9C16.8367 14.3554 16.9433 13.7791 16.9475 13.1975C17 12.23 17 11.945 17 9.5C17 7.055 17 6.77 16.9475 5.8025ZM15.0425 11.8025C15.0184 12.2653 14.9197 12.7212 14.75 13.1525C14.6044 13.5123 14.3879 13.8391 14.1135 14.1135C13.8391 14.3879 13.5123 14.6044 13.1525 14.75C12.7171 14.9102 12.2587 14.9988 11.795 15.0125H7.205C6.7413 14.9988 6.28287 14.9102 5.8475 14.75C5.47558 14.6118 5.13971 14.3913 4.865 14.105C4.59325 13.8359 4.38338 13.5109 4.25 13.1525C4.08917 12.7176 4.00296 12.2586 3.995 11.795V7.205C4.00296 6.74137 4.08917 6.28241 4.25 5.8475C4.38821 5.47558 4.60871 5.13971 4.895 4.865C5.16525 4.59472 5.48995 4.38507 5.8475 4.25C6.28287 4.0898 6.7413 4.00116 7.205 3.9875H11.795C12.2587 4.00116 12.7171 4.0898 13.1525 4.25C13.5244 4.38821 13.8603 4.60871 14.135 4.895C14.4068 5.16406 14.6166 5.4891 14.75 5.8475C14.9102 6.28287 14.9988 6.7413 15.0125 7.205V9.5C15.0125 11.045 15.065 11.2025 15.0425 11.795V11.8025ZM13.8425 6.2225C13.7532 5.98024 13.6124 5.76023 13.4298 5.57766C13.2473 5.39509 13.0273 5.2543 12.785 5.165C12.4524 5.0497 12.102 4.99384 11.75 5H7.25C6.8962 5.00346 6.5458 5.06948 6.215 5.195C5.97645 5.28024 5.75877 5.41528 5.57644 5.59115C5.39411 5.76702 5.2513 5.97968 5.1575 6.215C5.04858 6.54902 4.99537 6.8987 5 7.25V11.75C5.00744 12.1034 5.07333 12.4531 5.195 12.785C5.2843 13.0273 5.42509 13.2473 5.60766 13.4298C5.79023 13.6124 6.01024 13.7532 6.2525 13.8425C6.5725 13.9602 6.90924 14.026 7.25 14.0375H11.75C12.1038 14.034 12.4542 13.968 12.785 13.8425C13.0273 13.7532 13.2473 13.6124 13.4298 13.4298C13.6124 13.2473 13.7532 13.0273 13.8425 12.785C13.968 12.4542 14.034 12.1038 14.0375 11.75V7.25C14.0377 6.89585 13.9716 6.54479 13.8425 6.215V6.2225ZM9.5 12.365C9.12412 12.365 8.75192 12.2908 8.40475 12.1468C8.05757 12.0027 7.74223 11.7915 7.47679 11.5254C7.21134 11.2593 7.00102 10.9434 6.85786 10.5958C6.7147 10.2483 6.64151 9.87588 6.6425 9.5C6.6425 8.93304 6.81072 8.37882 7.12587 7.90751C7.44101 7.43621 7.8889 7.069 8.41285 6.85238C8.9368 6.63575 9.51324 6.57946 10.0692 6.69061C10.6252 6.80177 11.1356 7.07538 11.536 7.47681C11.9364 7.87823 12.2087 8.38943 12.3184 8.94568C12.4281 9.50193 12.3703 10.0782 12.1523 10.6016C11.9343 11.125 11.5659 11.5719 11.0937 11.8858C10.6216 12.1997 10.067 12.3665 9.5 12.365ZM12.5 7.1975C12.3342 7.17995 12.1808 7.10167 12.0693 6.97773C11.9578 6.85379 11.8961 6.69297 11.8961 6.52625C11.8961 6.35953 11.9578 6.19871 12.0693 6.07477C12.1808 5.95083 12.3342 5.87255 12.5 5.855C12.6658 5.87255 12.8192 5.95083 12.9307 6.07477C13.0422 6.19871 13.1039 6.35953 13.1039 6.52625C13.1039 6.69297 13.0422 6.85379 12.9307 6.97773C12.8192 7.10167 12.6658 7.17995 12.5 7.1975Z" fill="currentColor"/>
</svg>
