<svg width="15" height="20" viewBox="0 0 15 20" fill="none" xmlns="http://www.w3.org/2000/svg">
<path d="M1.5 16C1.0875 16 0.7345 15.8532 0.441 15.5597C0.1475 15.2662 0.0005 14.913 0 14.5V5.5C0 5.0875 0.147 4.7345 0.441 4.441C0.735 4.1475 1.088 4.0005 1.5 4H13.5C13.9125 4 14.2657 4.147 14.5597 4.441C14.8537 4.735 15.0005 5.088 15 5.5V14.5C15 14.9125 14.8532 15.2657 14.5597 15.5597C14.2662 15.8537 13.913 16.0005 13.5 16H1.5ZM7.5 10.75L1.5 7V14.5H13.5V7L7.5 10.75ZM7.5 9.25L13.5 5.5H1.5L7.5 9.25ZM1.5 7V5.5V14.5V7Z" fill="currentColor"/>
</svg>
