<svg width="24" height="24" viewBox="0 0 24 24" fill="none" xmlns="http://www.w3.org/2000/svg">
<g clip-path="url(#clip0_281_202)">
<path d="M18.7869 3.76C17.7546 2.7195 17.1857 1.38324 17.1861 0H12.5196V16.5333C12.4836 17.428 12.0558 18.2755 11.3262 18.8973C10.5966 19.519 9.62219 19.8665 8.60816 19.8667C6.46367 19.8667 4.68163 18.32 4.68163 16.4C4.68163 14.1067 7.18857 12.3867 9.77102 13.0933V8.88C4.56082 8.26667 0 11.84 0 16.4C0 20.84 4.16816 24 8.59306 24C13.3351 24 17.1861 20.6 17.1861 16.4V8.01333C19.0784 9.21313 21.3503 9.85686 23.68 9.85333V5.73333C23.68 5.73333 20.8408 5.85333 18.7869 3.76Z" fill="black"/>
</g>
<defs>
<clipPath id="clip0_281_202">
<rect width="23.68" height="24" fill="white"/>
</clipPath>
</defs>
</svg>
