<svg width="19" height="19" viewBox="0 0 19 19" fill="none" xmlns="http://www.w3.org/2000/svg">
<path d="M14.8141 4.18254C14.123 3.48799 13.2999 2.9373 12.3927 2.56258C11.4855 2.18787 10.5124 1.99664 9.53015 2.00004C5.41457 2.00004 2.0603 5.33754 2.0603 9.43254C2.0603 10.745 2.40704 12.02 3.05528 13.145L2 17L5.95729 15.965C7.05025 16.5575 8.27889 16.8725 9.53015 16.8725C13.6457 16.8725 17 13.535 17 9.44004C17 7.45254 16.2236 5.58504 14.8141 4.18254ZM9.53015 15.6125C8.41457 15.6125 7.32161 15.3125 6.36432 14.75L6.13819 14.615L3.78643 15.23L4.41206 12.95L4.26131 12.7175C3.64152 11.7328 3.31242 10.5945 3.31156 9.43254C3.31156 6.02754 6.1005 3.25254 9.52261 3.25254C11.1809 3.25254 12.7412 3.89754 13.9095 5.06754C14.4881 5.64052 14.9465 6.32204 15.2583 7.07261C15.5702 7.82319 15.7292 8.62788 15.7261 9.44004C15.7412 12.845 12.9523 15.6125 9.53015 15.6125ZM12.9372 10.9925C12.7487 10.9025 11.8291 10.4525 11.6633 10.385C11.4899 10.325 11.3693 10.295 11.2412 10.475C11.1131 10.6625 10.7588 11.0825 10.6533 11.2025C10.5477 11.33 10.4347 11.345 10.2462 11.2475C10.0578 11.1575 9.45477 10.955 8.74623 10.325C8.18844 9.83004 7.81909 9.22254 7.70603 9.03504C7.6005 8.84754 7.69095 8.75004 7.78894 8.65254C7.87186 8.57004 7.97739 8.43504 8.06784 8.33004C8.15829 8.22504 8.19598 8.14254 8.25628 8.02254C8.31658 7.89504 8.28643 7.79004 8.24121 7.70004C8.19598 7.61004 7.81909 6.69504 7.66834 6.32004C7.51759 5.96004 7.3593 6.00504 7.24623 5.99754H6.88442C6.75628 5.99754 6.5603 6.04254 6.38693 6.23004C6.22111 6.41754 5.73869 6.86754 5.73869 7.78254C5.73869 8.69754 6.40955 9.58254 6.5 9.70254C6.59045 9.83004 7.81909 11.705 9.68844 12.5075C10.1332 12.7025 10.4799 12.815 10.7513 12.8975C11.196 13.04 11.603 13.0175 11.9271 12.9725C12.2889 12.92 13.0352 12.5225 13.1859 12.0875C13.3442 11.6525 13.3442 11.285 13.2915 11.2025C13.2387 11.12 13.1256 11.0825 12.9372 10.9925Z" fill="currentColor"/>
</svg>
